<svg width="48" height="48" viewBox="0 0 48 48" fill="none" xmlns="http://www.w3.org/2000/svg">
<path d="M26.6667 16H21.3333V21.3333H26.6667V16ZM37.3333 16H32V21.3333H37.3333V16ZM45.3333 33.3333C42 33.3333 38.8 32.8 35.8133 31.8133C34.88 31.52 33.84 31.7333 33.0933 32.4533L27.2267 38.32C19.68 34.48 13.4933 28.32 9.65333 20.7733L15.52 14.88C16.2667 14.16 16.48 13.12 16.1867 12.1867C15.2 9.2 14.6667 6 14.6667 2.66667C14.6667 1.2 13.4667 0 12 0H2.66667C1.2 0 0 1.2 0 2.66667C0 27.7067 20.2933 48 45.3333 48C46.8 48 48 46.8 48 45.3333V36C48 34.5333 46.8 33.3333 45.3333 33.3333ZM42.6667 16V21.3333H48V16H42.6667Z" fill="#445964"/>
</svg>
